<?xml version="1.0" encoding="UTF-8"?>
<svg width="752pt" height="752pt" version="1.1" viewBox="0 0 752 752" xmlns="http://www.w3.org/2000/svg">
 <g>
  <path d="m590.22 367.16h-68.168c-5.9297 0-10.734 4.8086-10.734 10.734v195.98h-17.461v-114.62c0-5.9258-4.8047-10.734-10.734-10.734h-23.363v-201.48c0-16.867-13.723-30.586-30.586-30.586h-53.746c-4.043-14.301-17.211-24.805-32.785-24.805h-1.1484c-0.58203-19.402-16.543-35-36.082-35-19.543 0-35.504 15.602-36.086 35h-1.1445c-15.574 0-28.742 10.508-32.785 24.805h-53.758c-16.867 0-30.586 13.719-30.586 30.586v317.71c0 16.867 13.723 30.586 30.586 30.586l408.58 0.015624c2.8477 0 5.5742-1.1289 7.5898-3.1406 2.0156-2.0156 3.1445-4.75 3.1445-7.5938v-206.72c0-5.9258-4.8047-10.734-10.734-10.734zm-284.81-189.04c7.6992 0 14.023 5.9766 14.586 13.531h-29.176c0.56641-7.5547 6.8945-13.531 14.59-13.531zm-37.23 35h74.461c6.9453 0 12.598 5.6523 12.598 12.598s-5.6523 12.594-12.598 12.594h-74.461c-6.9453 0-12.598-5.6484-12.598-12.594s5.6523-12.598 12.598-12.598zm97.109 360.75h-46.703l0.003906-48.262h46.703zm38.93-114.62v114.62h-17.461v-58.996c0-5.9258-4.8047-10.734-10.734-10.734h-68.168c-5.9297 0-10.734 4.8086-10.734 10.734v58.992l-115.48-0.003906c-5.0234 0-9.1172-4.0898-9.1172-9.1172v-317.71c0-5.0234 4.0898-9.1172 9.1172-9.1172h54.746c4.918 12.77 17.316 21.855 31.801 21.855h74.461c14.484 0 26.883-9.0859 31.801-21.855h54.734c5.0234 0 9.1172 4.0898 9.1172 9.1172v201.48h-23.336c-5.9375 0-10.742 4.8047-10.742 10.734zm68.168 114.62h-46.699v-103.88h46.699zm107.1 0.007812-46.699-0.003906v-185.25h46.699z"/>
  <path d="m229.43 327.2h53.133c5.9297 0 10.734-4.8047 10.734-10.734 0-5.9258-4.8047-10.734-10.734-10.734h-53.133c-5.9297 0-10.734 4.8086-10.734 10.734 0 5.9258 4.8047 10.734 10.734 10.734z"/>
  <path d="m381.4 305.73h-53.133c-5.9297 0-10.734 4.8086-10.734 10.734 0 5.9258 4.8047 10.734 10.734 10.734h53.133c5.9297 0 10.734-4.8047 10.734-10.734 0-5.9297-4.8047-10.734-10.734-10.734z"/>
  <path d="m229.43 396.1h98.84c5.9297 0 10.734-4.8086 10.734-10.734 0-5.9258-4.8047-10.734-10.734-10.734h-98.84c-5.9297 0-10.734 4.8086-10.734 10.734 0 5.9297 4.8047 10.734 10.734 10.734z"/>
  <path d="m381.4 374.63h-13.746c-5.9297 0-10.734 4.8086-10.734 10.734 0 5.9258 4.8047 10.734 10.734 10.734h13.746c5.9297 0 10.734-4.8086 10.734-10.734 0-5.9258-4.8047-10.734-10.734-10.734z"/>
  <path d="m367.66 443.54h-138.23c-5.9297 0-10.734 4.8086-10.734 10.734 0 5.9258 4.8047 10.734 10.734 10.734h138.23c5.9297 0 10.734-4.8086 10.734-10.734 0-5.9258-4.8047-10.734-10.734-10.734z"/>
 </g>
</svg>
