<?xml version="1.0" encoding="UTF-8"?>
<svg width="752pt" height="752pt" version="1.1" viewBox="0 0 752 752" xmlns="http://www.w3.org/2000/svg">
 <path d="m432.33 209.36c2.3164-2.3164 6.0234-2.3164 8.3438 0l95.734 95.734h26.195c13.215 0 23.875 10.664 23.875 24.109v8.3438c0 13.215-10.66 23.879-23.875 23.879h-1.8555l-25.266 128.88c-2.0859 10.434-11.125 17.852-21.559 17.852h-219.29c-12.285 19.934-34.309 33.379-59.344 33.379-38.477 0-69.773-31.293-69.773-69.773s31.297-69.773 69.773-69.773h3.0156l-7.8828-40.801h-2.0859c-13.211 0-23.875-10.66-23.875-23.875v-8.3438c0-13.215 10.664-23.879 23.875-23.879h26.195l95.734-95.734c2.3203-2.3164 6.0273-2.3164 8.3477 0 2.3164 2.3164 2.3164 6.0273 0 8.3438l-87.391 87.391h248.5l-87.391-87.391c-2.3203-2.3164-2.3203-6.0273 0-8.3438zm-197.27 204.22c-31.758 0-57.719 25.961-57.719 57.719s25.73 57.719 57.719 57.719c31.758 0 57.719-25.961 57.719-57.719s-25.961-57.719-57.719-57.719zm-0.23047 21.789c3.2461 0 6.0273 2.7812 6.0273 6.0273v23.875h23.875c3.4766 0 6.2578 2.7812 6.2578 6.0273s-2.7812 6.0273-6.0273 6.0273h-23.875v23.875c0 3.2461-2.7812 6.0273-6.0273 6.0273s-6.0273-2.7812-6.0273-6.0273v-23.875h-23.875c-3.2461 0-6.0273-2.7812-6.0273-6.0273 0-3.4766 2.7812-6.0273 6.0273-6.0273h23.645v-23.875c0-3.4766 2.7812-6.0273 6.0273-6.0273zm313.4-74.41h-306.22l8.3477 42.422c31.062 7.1836 54.242 34.77 54.242 67.918 0 8.8086-1.625 16.922-4.4062 24.57h213.5c4.8672 0 9.0391-3.4766 9.9688-8.1133zm-152.99 21.559c3.2461 0 6.0273 2.7812 6.0273 6.0273v79.508c0 3.2461-2.7812 6.0273-6.0273 6.0273-3.2461 0-5.7969-2.5508-6.0273-6.0273v-79.508c0-3.4766 2.7812-6.0273 6.0273-6.0273zm-80.207 0.23047c3.2461-0.23047 6.2617 2.0859 6.4922 5.332l6.4883 79.512c0.46484 3.4766-2.0859 6.2578-5.3281 6.4883h-0.46484c-3.0156 0-5.5625-2.3164-6.0273-5.332l-6.4922-79.508c-0.46094-3.4766 2.0859-6.2578 5.332-6.4922zm160-0.24219 0.64844 0.011719c3.2422 0.23047 5.5625 3.2461 5.332 6.4883l-6.4922 79.512c-0.23047 3.2461-3.0156 5.5625-6.0273 5.5625h-0.46484c-3.4766-0.23047-5.793-3.2461-5.332-6.7227l6.4922-79.508c0.23047-3.2461 3.2461-5.5625 6.4922-5.332zm87.574-65.59h-334.5c-6.4922 0-11.824 5.332-11.824 11.82v8.3477c0 6.4883 5.332 11.82 11.824 11.82h334.73c6.4922 0 11.824-5.332 11.824-11.82h-0.23047v-8.3477c0-6.4883-5.332-11.82-11.824-11.82z"/>
</svg>
