<?xml version="1.0" encoding="UTF-8"?>
<svg width="752pt" height="752pt" version="1.1" viewBox="0 0 752 752" xmlns="http://www.w3.org/2000/svg">
 <g>
  <path d="m584.09 212.4h-89.691v-37.312c0-3.5859-2.8711-6.457-6.457-7.1758l-71.039-10.047c-4.3047-0.71875-7.8945 2.1523-7.8945 6.457-0.71875 3.5859 2.1523 7.8945 6.457 7.8945l64.578 8.6094v30.855h-99.734c-12.199 0-21.527 9.3281-21.527 21.527v32.289c0 4.3047 2.8711 7.1758 7.1758 7.1758h7.1758l2.8711 42.336c-14.352-5.7422-30.137-8.6094-46.641-8.6094h-31.57c-71.039 0-128.44 56.688-131.31 126.29-11.484 5.0195-20.094 16.5-20.094 30.133 0 7.8945 2.8711 15.785 8.6094 21.527-8.6094 5.7383-9.3281 16.504-8.6094 27.266v2.1523 1.4336c0 5.7422 2.1523 11.48 6.457 15.07l0.71875 0.71875v33.727c0 15.785 12.914 28.703 28.703 28.703h264.06c15.785 0 28.703-12.914 28.703-28.703h72.473c15.07 0 27.266-11.48 27.984-26.551 14.352-233.92 0 4.3047 16.504-265.49h7.1758c4.3047 0 7.1758-2.8711 7.1758-7.1758v-32.289c-0.72266-11.48-10.051-20.809-22.25-20.809zm-210.96 21.523c0-4.3047 2.8711-7.1758 7.1758-7.1758h203.78c4.3047 0 7.1758 2.8711 7.1758 7.1758v25.113h-218.13zm-75.344 86.824h31.57c62.426 0 113.37 48.793 116.96 109.79h-265.49c4.3047-60.992 55.25-109.79 116.96-109.79zm-119.83 124.85h271.95c9.3281 0 17.223 7.8945 17.223 17.223s-7.8945 17.223-17.223 17.223h-271.95c-9.3281 0-17.223-7.8945-17.223-17.223 0.003906-9.3281 7.8945-17.223 17.223-17.223zm-17.219 70.32c0.71875-7.8945-3.5859-22.242 7.1758-22.242h10.047 282c3.5859 0 7.1758 2.8711 7.1758 7.1758v14.352c0 5.0234-5.0234 7.8945-9.3281 6.457-16.504-5.7422-22.242-8.6094-30.855-5.7422-31.57 11.48-32.289 12.199-35.16 10.762-32.289-11.48-35.879-14.352-44.488-10.762-32.289 11.48-32.289 12.199-35.16 10.762-26.551-9.3281-32.289-12.199-38.031-12.199-8.6094 0-35.879 14.352-41.617 12.199-26.551-9.3281-32.289-12.199-38.031-12.199-12.195 0.72266-33.008 16.508-33.723 1.4375zm299.21 49.512c0 7.8945-6.457 14.352-14.352 14.352h-263.34c-7.8945 0-14.352-6.457-14.352-14.352v-28.703c7.1758 0 22.961-7.1758 25.113-7.1758 5.0234 0 33.008 12.199 40.184 12.199 7.8945 0 37.312-12.199 40.184-12.199 5.0234 0 33.008 12.199 40.184 12.199 4.3047 0 9.3281-1.4336 22.961-6.457 22.961-7.8945 10.762-8.6094 50.945 5.0234 13.633 5.0234 40.184-11.48 46.641-11.48 5.7422 0 17.938 7.1758 25.832 7.1758zm112.66-224.59h-40.184c-4.3047 0-7.1758 2.8711-7.1758 7.1758s2.8711 7.1758 7.1758 7.1758h39.465l-7.1758 114.09h-32.289c-4.3047 0-7.1758 2.8711-7.1758 7.1758 0 4.3047 2.8711 7.1758 7.1758 7.1758h31.57l-3.5859 54.535c-0.71875 7.1758-6.457 12.914-14.352 12.914h-71.754v-19.375c4.3047-3.5859 7.1758-9.3281 7.1758-15.785v-14.352c0-7.1758-3.5859-12.914-8.6094-17.223 5.0234-5.7422 8.6094-12.914 8.6094-21.527 0-13.633-8.6094-25.113-20.09-29.418-2.1523-48.074-29.418-90.41-70.32-111.22l-2.8711-48.793h188.71z"/>
  <path d="m273.39 358.78-8.6094 7.1758c-2.8711 2.1523-3.5859 7.1758-0.71875 10.047 1.4336 1.4336 3.5859 2.8711 5.7422 2.8711 1.4336 0 2.8711-0.71875 4.3047-1.4336l8.6094-7.1758c2.8711-2.1523 3.5859-7.1758 0.71875-10.047-2.8711-3.5898-7.1758-4.3086-10.047-1.4375z"/>
  <path d="m309.99 388.2-8.6094 7.1758c-2.8711 2.1523-3.5859 7.1758-0.71875 10.047 1.4336 1.4336 3.5859 2.8711 5.7422 2.8711 1.4336 0 2.8711-0.71875 4.3047-1.4336l8.6094-7.1758c2.8711-2.1523 3.5859-7.1758 0.71875-10.047-2.8711-3.5898-7.1797-4.3086-10.047-1.4375z"/>
  <path d="m343 351.61-8.6094 7.1758c-2.8711 2.1523-3.5859 7.1758-0.71875 10.047 1.4336 1.4336 3.5859 2.8711 5.7422 2.8711 1.4336 0 2.8711-0.71875 4.3047-1.4336l8.6094-7.1758c2.8711-2.1523 3.5859-7.1758 0.71875-10.047-2.1562-3.5898-7.1797-4.3086-10.047-1.4375z"/>
  <path d="m392.5 384.61-8.6094 7.1758c-2.8711 2.1523-3.5859 7.1758-0.71875 10.047 1.4336 1.4336 3.5859 2.8711 5.7422 2.8711 1.4336 0 2.8711-0.71875 4.3047-1.4336l8.6094-7.1758c2.8711-2.1523 3.5859-7.1758 0.71875-10.047-2.1523-3.5898-6.457-4.3086-10.047-1.4375z"/>
  <path d="m234.64 391.79-8.6094 7.1758c-2.8711 2.1523-3.5859 7.1758-0.71875 10.047 1.4336 1.4336 3.5859 2.8711 5.7422 2.8711 1.4336 0 2.8711-0.71875 4.3047-1.4336l8.6094-7.1758c2.8711-2.1523 3.5859-7.1758 0.71875-10.047-2.1523-3.5898-7.1758-4.3086-10.047-1.4375z"/>
 </g>
</svg>
