<?xml version="1.0" encoding="UTF-8"?>
<svg width="752pt" height="752pt" version="1.1" viewBox="0 0 752 752" xmlns="http://www.w3.org/2000/svg">
 <g>
  <path d="m512.81 371.79h-196.27l-0.003907-157.34v-55.777h-31.57v44.727h-11.051v-44.727h-31.57v44.727h-18.945v53.145h42.098v257.31h31.047l11.047 79.461h24.73l0.003906-79.457h3.6836l11.051 79.457h24.73v-79.457h4.207l11.051 79.457h25.785v-79.457h3.6836l11.051 79.457h24.73v-79.457h38.414v-110.5h22.098c8.9453 0 16.312-7.3672 16.312-16.312-0.52344-8.418-7.3672-15.258-16.312-15.258zm-216.79-202.06h9.4727v33.676h-9.4727zm-42.621 0h9.4727v33.676h-9.4727zm68.402 412.54h-4.2109l-9.4727-68.406h13.68zm39.469 0h-4.2109l-9.4727-68.406h13.68zm40.516 0h-4.2109l-9.4727-68.406h13.68zm39.992 0h-4.2109l-9.4727-68.406h13.68zm38.41-79.457h-203.11l-0.003906-257.31h-42.098v-31.047h71.562v168.38h174.17zm32.625-109.98h-21.574v-9.9961h21.574c2.6328 0 5.2617 2.1055 5.2617 5.2617s-2.6289 4.7344-5.2617 4.7344z"/>
  <path d="m295.49 229.72c0 3.1953-2.5898 5.7852-5.7891 5.7852-3.1953 0-5.7852-2.5898-5.7852-5.7852 0-3.1992 2.5898-5.7891 5.7852-5.7891 3.1992 0 5.7891 2.5898 5.7891 5.7891"/>
  <path d="m440.2 421.25c12.102 0 22.102-9.9961 22.102-22.102h-11.051c0 5.7891-4.7344 11.051-11.051 11.051-5.7891 0-11.051-4.7344-11.051-11.051h-11.051c0 12.105 9.9961 22.102 22.102 22.102z"/>
  <path d="m423.89 457.04c12.102 0 22.102-9.9961 22.102-22.102h-11.051c0 5.7891-4.7344 11.051-11.051 11.051-6.3125 0-11.051-4.7344-11.051-10.523h-11.051c0 12.105 9.9961 21.574 22.102 21.574z"/>
  <path d="m434.41 480.19c-5.7891 0-11.051-4.7344-11.051-11.051h-11.051c0 12.102 9.9961 22.102 22.102 22.102 12.102 0 22.102-9.9961 22.102-22.102h-11.051c0 5.7891-4.7383 11.051-11.051 11.051z"/>
  <path d="m311.28 481.77c-5.7891 0-11.051-4.7344-11.051-11.051h-11.051c0 12.102 9.9961 22.102 22.102 22.102 12.102 0 22.102-9.9961 22.102-22.102h-11.051c0 6.3125-4.7344 11.051-11.051 11.051z"/>
  <path d="m330.22 427.04h-11.051c0 12.102 9.9961 22.102 22.102 22.102 12.102 0 22.102-9.9961 22.102-22.102h-11.051c0 5.7891-4.7344 11.051-11.051 11.051-6.3164 0-11.051-5.2617-11.051-11.051z"/>
  <path d="m320.75 415.46c12.102 0 22.102-9.9961 22.102-22.102h-11.051c0 5.7891-4.7344 11.051-11.051 11.051-6.3125 0-11.051-4.7344-11.051-11.051h-11.051c0.52734 12.105 10 22.102 22.102 22.102z"/>
  <path d="m370.74 472.82c-5.7891 0-11.051-4.7344-11.051-11.051h-11.051c0 12.102 9.9961 22.102 22.102 22.102 12.102 0 22.102-9.9961 22.102-22.102h-11.051c0 6.3125-5.2617 11.051-11.051 11.051z"/>
  <path d="m381.79 429.68c12.102 0 22.102-9.9961 22.102-22.102h-11.051c0 5.7891-4.7344 11.051-11.051 11.051-5.7891 0-11.051-5.2617-11.051-11.051h-11.051c0 12.102 10 22.102 22.102 22.102z"/>
 </g>
</svg>
