<?xml version="1.0" encoding="UTF-8"?>
<svg width="752pt" height="752pt" version="1.1" viewBox="0 0 752 752" xmlns="http://www.w3.org/2000/svg">
 <g>
  <path d="m560.7 186.57h-369.39c-2.6172 0-4.7344 2.1172-4.7344 4.7344v43.836c0 2.6172 2.1172 4.7344 4.7344 4.7344h26.398v90.551c0 2.6172 2.1172 4.7344 4.7344 4.7344h123.62c2.6172 0 4.7344-2.1172 4.7344-4.7344l0.003906-90.551h209.9c2.6172 0 4.7344-2.1172 4.7344-4.7344v-43.836c0-2.6172-2.1172-4.7344-4.7344-4.7344zm-219.37 139.12h-114.15v-85.812h114.15zm214.63-95.285h-359.92v-34.363h359.92z"/>
  <path d="m560.7 512.13h-9.6445c2.293-3.1992 3.9258-7.0234 4.5664-11.293l1.4062-9.4062c0.74609-4.9766-0.64844-9.9492-3.8281-13.637-1.1992-1.3906-2.6406-2.4688-4.1836-3.3203l-0.003906-25.699c0.96484-0.28125 2.0352-0.47656 3.4727-0.47656 1.2812 0 2.5078-0.51953 3.3984-1.4375 0.89453-0.92188 1.375-2.1641 1.3359-3.4453-0.023438-0.69141-0.55469-14.598-6.4961-24.684 3.2812-2.5898 5.4297-6.5547 5.4297-11.055v-0.63672c0-31.484-25.613-57.102-57.098-57.102h-57.793c-31.484 0-57.102 25.617-57.102 57.102v0.63672c0 4.5469 2.1914 8.5547 5.5391 11.141-6.4648 9.9453-5.5117 24.359-5.4531 25.094 0.18359 2.4727 2.2422 4.3828 4.7227 4.3828 1.6875 0 2.9023 0.23828 3.9766 0.61719v25.25c-1.7461 0.875-3.3555 2.0781-4.6836 3.6211-3.1758 3.6914-4.5781 8.6641-3.832 13.637l1.4062 9.4102c0.64062 4.2695 2.2734 8.0938 4.5664 11.293h-16.289v-30.191c0-2.5547-2.0273-4.5977-4.5547-4.6992v-2.1211c0-41.09-29.223-75.477-67.977-83.488 3.8281-4.1836 6.2227-9.6992 6.2227-15.797 0-12.957-10.543-23.504-23.508-23.504-12.957 0-23.504 10.543-23.504 23.504 0 6.1016 2.3945 11.617 6.2188 15.797-38.758 8.0117-67.98 42.395-67.98 83.488v2.1836c-2.3711 0.25781-4.2422 2.1953-4.2422 4.6367v30.191l-3.4844 0.007812c-2.6172 0-4.7344 2.1172-4.7344 4.7344v43.836c0 2.6172 2.1172 4.7344 4.7344 4.7344h369.39c2.6172 0 4.7344-2.1172 4.7344-4.7344v-43.836c0-2.6172-2.1172-4.7344-4.7344-4.7344zm-161.23-90.312h141.95c3.5586 4.6836 5.2695 12.266 5.9531 17.555-3.4453 0.78906-5.75 2.3047-7.7148 3.5977-2.3633 1.5586-3.9258 2.5859-7.6211 2.5859-3.6953 0-5.2578-1.0273-7.6211-2.5859-2.8086-1.8438-6.3008-4.1445-12.828-4.1445-6.5312 0-10.023 2.2969-12.824 4.1445-2.3633 1.5586-3.9258 2.5859-7.6172 2.5859-3.6914 0-5.2539-1.0273-7.6172-2.5859-2.8008-1.8438-6.293-4.1445-12.824-4.1445s-10.023 2.2969-12.824 4.1445c-2.3633 1.5586-3.9258 2.5859-7.6133 2.5859-3.6914 0-5.25-1.0273-7.6133-2.5859-2.8008-1.8438-6.293-4.1445-12.82-4.1445-6.5273 0-10.016 2.2969-12.82 4.1445-2.3633 1.5586-3.9219 2.5859-7.6133 2.5859-3.6914 0-5.25-1.0273-7.6133-2.5859-2.043-1.3477-4.4492-2.9336-8.1367-3.6914 0.21094-5.4414 1.5234-13.414 5.8242-17.461zm2.9414 32.109c1.8867 0.64844 4.1328 1.0977 6.9844 1.0977 6.5273 0 10.016-2.2969 12.82-4.1445 2.3633-1.5586 3.9219-2.5859 7.6133-2.5859 3.6914 0 5.25 1.0273 7.6133 2.5859 2.8008 1.8438 6.293 4.1445 12.82 4.1445s10.016-2.2969 12.82-4.1445c2.3633-1.5586 3.9258-2.5859 7.6172-2.5859s5.2539 1.0273 7.6172 2.5859c2.8008 1.8438 6.293 4.1445 12.824 4.1445s10.023-2.2969 12.824-4.1445c2.3633-1.5586 3.9258-2.5859 7.6172-2.5859 3.6953 0 5.2578 1.0273 7.6211 2.5859 2.8086 1.8438 6.3008 4.1445 12.828 4.1445 3.1133 0 5.5195-0.53125 7.5078-1.2773v18.891l-14.523 0.12109c-9.4297 0-18.633 4.2305-25.258 11.613l-6.7539 7.5352-6.7578-7.5391c-6.6172-7.375-15.82-11.609-25.242-11.609l-58.598-0.13672zm-8.7812-46.887c0-26.266 21.367-47.633 47.633-47.633h57.793c26.258 0 47.625 21.367 47.625 47.633v0.63672c0 2.5703-2.0938 4.668-4.668 4.668h-143.72c-2.5703 0-4.668-2.0938-4.668-4.668zm1.5664 92.398-1.4062-9.4102c-0.33203-2.2188 0.28125-4.4805 1.6406-6.0586 0.60156-0.70312 1.9023-1.875 3.8203-1.8789l61.746 0.14453c6.8438 0 13.305 3.0078 18.199 8.457l10.281 11.469c1.8047 2.0078 5.2539 2.0078 7.0586 0l10.277-11.465c4.8984-5.457 11.359-8.4648 18.246-8.4648l17.125-0.14453c1.9297 0 3.2344 1.1797 3.832 1.8789 1.3594 1.5781 1.9688 3.8398 1.6367 6.0586l-1.4062 9.4102c-1.0781 7.1914-6.332 12.422-12.582 12.691l-125.89 0.003906c-6.2539-0.26953-11.504-5.5-12.582-12.691zm-124.95-123.61c0-7.7383 6.293-14.031 14.031-14.031 7.7422 0 14.035 6.293 14.035 14.031s-6.293 14.031-14.035 14.031c-7.7344 0-14.031-6.2969-14.031-14.031zm14.031 23.5c41.789 0 75.793 33.996 75.793 75.781v2.0859l-151.58 0.003906v-2.0859c0-41.785 34-75.785 75.789-75.785zm-80.031 87.34h160.38v25.453l-160.38 0.003906zm351.71 69.289h-359.92v-34.363h211.71c0.17578 0.003906 0.34375 0.050782 0.52344 0.050782h124.9c0.17969 0 0.34375-0.046876 0.52344-0.050782l22.262 0.003906z"/>
  <path d="m260.64 272.85h47.211c2.6172 0 4.7344-2.1172 4.7344-4.7344 0-2.6172-2.1172-4.7344-4.7344-4.7344h-47.211c-2.6172 0-4.7344 2.1172-4.7344 4.7344 0 2.6172 2.1172 4.7344 4.7344 4.7344z"/>
  <path d="m307.86 294.09h-47.211c-2.6172 0-4.7344 2.1172-4.7344 4.7344 0 2.6172 2.1172 4.7344 4.7344 4.7344h47.211c2.6172 0 4.7344-2.1172 4.7344-4.7344 0-2.6133-2.1172-4.7344-4.7344-4.7344z"/>
  <path d="m234.18 465.95c0.28516 0.054688 0.57031 0.078126 0.85156 0.078126 2.2422 0 4.2383-1.6016 4.6523-3.8906 2.9766-16.344 15.262-29.727 31.301-34.098 2.5234-0.6875 4.0156-3.2891 3.3242-5.8125-0.68359-2.5234-3.293-4.0234-5.8125-3.3242-19.539 5.3242-34.504 21.629-38.129 41.543-0.46875 2.5703 1.2383 5.0352 3.8125 5.5039z"/>
  <path d="m446.26 294.15c-10.426 0-18.902 8.4766-18.902 18.902 0 10.418 8.4766 18.898 18.902 18.898 2.6172 0 4.7344-2.1172 4.7344-4.7344s-2.1172-4.7344-4.7344-4.7344c-5.1992 0-9.4297-4.2266-9.4297-9.4258 0-5.1992 4.2305-9.4297 9.4297-9.4297 10.426 0 18.902-8.4766 18.902-18.902 0-10.418-8.4766-18.898-18.902-18.898-2.6172 0-4.7344 2.1172-4.7344 4.7344s2.1172 4.7344 4.7344 4.7344c5.1992 0 9.4297 4.2266 9.4297 9.4258 0 5.1953-4.2305 9.4297-9.4297 9.4297z"/>
  <path d="m495.19 294.15c-10.418 0-18.898 8.4766-18.898 18.902 0 10.418 8.4766 18.898 18.898 18.898 2.6172 0 4.7344-2.1172 4.7344-4.7344s-2.1172-4.7344-4.7344-4.7344c-5.1992 0-9.4258-4.2266-9.4258-9.4258 0-5.1992 4.2266-9.4297 9.4258-9.4297 10.426 0 18.902-8.4766 18.902-18.902 0-10.418-8.4766-18.898-18.902-18.898-2.6172 0-4.7344 2.1172-4.7344 4.7344s2.1172 4.7344 4.7344 4.7344c5.1992 0 9.4297 4.2266 9.4297 9.4258 0 5.1953-4.2305 9.4297-9.4297 9.4297z"/>
 </g>
</svg>
