<?xml version="1.0" encoding="UTF-8"?>
<svg width="752pt" height="752pt" version="1.1" viewBox="0 0 752 752" xmlns="http://www.w3.org/2000/svg">
 <g>
  <path d="m537.93 224.36-166.65-34.859c-2.5469-0.55078-5.0664 1.0977-5.6055 3.6602l-22.426 107.19-23.016-19.957c-1.9414-1.6758-4.8672-1.5156-6.5977 0.38281l-3.5625 3.8945-8.2773-7.5742c-1.9336-1.7617-4.9258-1.6328-6.6914 0.29688l-28.855 31.531c-0.84766 0.92188-1.293 2.1484-1.2344 3.4062s0.60547 2.4375 1.5352 3.2812l8.2773 7.5781-3.5625 3.8945c-1.7344 1.8906-1.6445 4.8203 0.20312 6.6055l20.352 19.645-28.074 30.676-21.367-18.531c-1.9414-1.6758-4.8633-1.5117-6.5977 0.38281l-3.5625 3.8945-8.2734-7.5742c-0.92969-0.85156-2.1094-1.332-3.4102-1.2422-1.2539 0.058594-2.4336 0.60547-3.2812 1.5352l-28.855 31.535c-0.84766 0.92188-1.293 2.1484-1.2344 3.4062 0.058594 1.2578 0.60547 2.4375 1.5352 3.2852l8.2734 7.5664-3.5625 3.8945c-1.7344 1.8906-1.6445 4.8203 0.20312 6.6055l78.836 76.105c-0.99609 1.7812-0.82812 4.0352 0.64844 5.5664l61.566 63.832c2.4297 2.5195 5.8203 3.9531 9.3164 3.9531h0.17578c3.5547-0.046875 6.9727-1.582 9.3711-4.207l47.695-52.121c2.4023-2.6289 3.6211-6.168 3.3516-9.7148-0.26953-3.5469-2.0117-6.8633-4.7773-9.0938l-13.039-10.512 93.086 19.473c2.043 0.42969 4.0977 0.64062 6.1367 0.64062 5.707 0 11.289-1.6523 16.184-4.8438 6.6289-4.3398 11.176-10.996 12.801-18.754l45.941-219.61c1.6211-7.7617 0.125-15.684-4.2148-22.32-4.3398-6.6328-10.996-11.184-18.758-12.801zm-261.49 87.465 22.461-24.547 4.7812 4.3711-22.461 24.551zm41.074-21.254 78.945 68.469-39.91 43.613-75.18-72.574zm106.88 181.97c-0.65234 0.71094-1.543 1.1094-2.5156 1.1211-0.88672 0.10938-1.8711-0.36328-2.543-1.0625l-7.4688-7.7422 51.457-56.234 8.3789 6.7578c0.75391 0.60547 1.207 1.4727 1.2773 2.4375 0.074219 0.96094-0.24609 1.8867-0.89844 2.6055zm-19.117-14.508-44.418-46.055 45.27-49.477 49.809 40.164zm-112.63-48.965 26.695-29.172 6.0664 5.8516c-0.007812 0.039062-0.039062 0.0625-0.042968 0.097656l-9.1406 43.672zm5.9883-49.156 13.891 13.406-27.035 29.547-14.586-12.656zm-100.05 36.996 22.461-24.551 4.7812 4.375-22.461 24.547zm41.074-21.254 78.945 68.469-39.91 43.613-75.184-72.582zm88.613 71.926 49.805 40.168-50.664 55.363-44.418-46.055zm66.855 55.32c0.070313 0.96484-0.24609 1.8906-0.89844 2.6055l-47.695 52.121c-0.65234 0.71094-1.543 1.1094-2.5117 1.1211-0.91406 0.089844-1.875-0.36328-2.5469-1.0625l-7.4727-7.7461 51.465-56.23 8.3789 6.7578c0.75391 0.60156 1.207 1.4648 1.2812 2.4336zm-64.367-65.484c-1.6562-1.3359-3.9102-1.3086-5.6016-0.15234l-0.78906-0.6875c0.03125-0.11328 0.10547-0.20312 0.12891-0.31641l8.9453-42.754 16.863 16.277c-1 1.7852-0.82812 4.0352 0.64844 5.5664l60.492 62.723-40.578-8.4883c-0.074219-0.015625-0.15234 0.007813-0.22656 0zm220.86-179.89-45.941 219.61c-1.1016 5.2812-4.1992 9.8125-8.7148 12.77-4.5117 2.9492-9.9062 3.9727-15.191 2.8633l-53.816-11.258c1.2578-0.68359 2.4375-1.5156 3.418-2.5898l47.691-52.121c2.4023-2.625 3.6289-6.168 3.3594-9.7148-0.26953-3.5469-2.0117-6.8633-4.7773-9.0938l-57.941-46.727 73.859 15.254c0.29297 0.0625 0.58203 0.089843 0.86719 0.089843 1.9805 0 3.75-1.3867 4.168-3.4062 0.47656-2.3008-1.0039-4.5625-3.3086-5.0352l-96.902-20.008-46.945-40.715 22.531-107.72 162.02 33.891c5.2812 1.1016 9.8125 4.1992 12.77 8.7148 2.9492 4.5195 3.9688 9.9141 2.8594 15.195z"/>
  <path d="m518.21 276.42-125.92-27.219c-2.2969-0.48828-4.5664 0.96484-5.0664 3.2617-0.49609 2.3008 0.96484 4.5703 3.2695 5.0664l125.92 27.215c0.30469 0.066406 0.60547 0.097656 0.90625 0.097656 1.9648 0 3.7305-1.3633 4.1641-3.3633 0.48828-2.293-0.97266-4.5625-3.2734-5.0586z"/>
  <path d="m506.77 322.3-125.92-27.215c-2.2891-0.49219-4.5703 0.96484-5.0664 3.2617-0.49609 2.3008 0.96484 4.5703 3.2695 5.0664l125.92 27.215c0.30469 0.066406 0.60547 0.097656 0.90625 0.097656 1.9648 0 3.7305-1.3633 4.1641-3.3633 0.49219-2.2969-0.96875-4.5586-3.2734-5.0625z"/>
 </g>
</svg>
