<?xml version="1.0" encoding="UTF-8"?>
<svg width="752pt" height="752pt" version="1.1" viewBox="0 0 752 752" xmlns="http://www.w3.org/2000/svg">
 <path d="m238.23 489.6h118.36v15.973h-118.36zm-7.1641 30.301 132.69-0.003906c3.9531-0.003907 7.1562-3.2109 7.1602-7.1641v-30.305c-0.019531-3.9414-3.2188-7.1289-7.1602-7.1289h-132.69c-3.9453 0.015625-7.1328 3.2188-7.1289 7.1641v30.289c0 3.9453 3.1875 7.1445 7.1289 7.1641zm359.77-269.2-429.66-0.003906v-46.988h429.65v46.992zm-29.285 297.59-0.003906-283.27h-371.09v283.27zm36.441-358.91h-443.97c-1.9023-0.003907-3.7227 0.75-5.0664 2.0938s-2.1016 3.1641-2.1016 5.0625v61.316c0 1.9023 0.75781 3.7227 2.1016 5.0664s3.1641 2.0977 5.0664 2.0938h22.113v290.44c0 1.9023 0.75781 3.7227 2.1016 5.0664s3.1641 2.0938 5.0625 2.0938h385.41c1.8984 0 3.7227-0.75 5.0664-2.0938s2.0977-3.1641 2.0977-5.0664v-290.43h22.121c1.9023 0 3.7227-0.75781 5.0664-2.1016s2.0977-3.1641 2.0977-5.0664v-61.316c-0.003906-3.9531-3.2109-7.1562-7.1641-7.1562z" fill-rule="evenodd"/>
</svg>
